<?xml version="1.0" encoding="utf-8"?>
<!-- Generator: Adobe Illustrator 22.1.0, SVG Export Plug-In . SVG Version: 6.00 Build 0)  -->
<svg version="1.1" id="Livello_1" xmlns="http://www.w3.org/2000/svg" xmlns:xlink="http://www.w3.org/1999/xlink" x="0px" y="0px"
	 viewBox="0 0 165.3 32.3" style="enable-background:new 0 0 165.3 32.3;" xml:space="preserve">
<style type="text/css">
	.st0{fill:#193156;}
</style>
<polygon class="st0" points="165.3,3.4 155,3.4 144.3,14.1 141.4,14.1 152.3,3.3 141.7,3.3 131.1,13.9 127.9,13.9 138.1,3.7 
	127.6,3.7 117.5,13.8 117.5,13.8 18.3,13.8 18.3,0 0,16.3 18.3,32.3 18.3,18.8 116.8,18.8 127.4,29.4 137.2,29.4 126.6,18.8 
	129.9,18.8 140.4,29.4 150.8,29.4 140,18.6 143,18.6 153.6,29.2 164.3,29.2 151.9,16.8 "/>
</svg>
