<?xml version="1.0" encoding="utf-8"?>
<!-- Generator: Adobe Illustrator 22.1.0, SVG Export Plug-In . SVG Version: 6.00 Build 0)  -->
<svg version="1.1" id="Livello_1" xmlns="http://www.w3.org/2000/svg" xmlns:xlink="http://www.w3.org/1999/xlink" x="0px" y="0px"
	 viewBox="0 0 200.7 96.6" style="enable-background:new 0 0 200.7 96.6;" xml:space="preserve">
<style type="text/css">
	.st0{fill:#193156;}
</style>
<path class="st0" d="M175.7,74.5l24.9-1.6l-9.2-23.2L170.6,51l-13.1-8.3l-5.3-18.9l-4.8,1.3l3.8,13.5l-6.4-4l-4.9-18.4l-4.8,1.3
	l3.5,13.3l-21-13.2c0-0.2,0-0.5,0-0.7C117.6,7.6,110,0,100.7,0S83.8,7.6,83.8,16.9c0,0.1,0,0.2,0,0.3L62.1,30.8l3.5-13.3l-4.8-1.3
	l-4.9,18.4l-6.4,4l3.8-13.5l-4.8-1.3l-5.3,18.9L30,51L9.2,49.6L0,72.8l24.9,1.6l7.6-19.2l42.9-27c4.1,9.2,12.9,15.4,23,16.2L97.6,75
	c-4.6,1.3-8,5.5-8,10.6c0,6.1,4.9,11,11,11s11-4.9,11-11c0-5.4-3.9-9.8-8.9-10.8l0.9-30.4c9.7-1,18.1-7,22.2-15.8l42.4,26.6
	L175.7,74.5z M188.1,54.8l5.4,13.5L179,69.2l-3.7-9.4l10.7,6.7l2.7-4.2l-10.8-6.8L188.1,54.8z M100.7,5c6.6,0,11.9,5.3,11.9,11.9
	s-5.3,11.9-11.9,11.9s-11.9-5.3-11.9-11.9S94.1,5,100.7,5z M21.6,69.2L7.2,68.3l5.4-13.5l10.3,0.7L12,62.3l2.7,4.2l10.7-6.7
	L21.6,69.2z M106.5,85.6c0,3.3-2.7,6-6,6s-6-2.7-6-6s2.7-6,6-6S106.5,82.3,106.5,85.6z M100.7,39.6c-9.3,0-17.4-5.5-20.9-14l5-3.1
	c2.3,6.6,8.6,11.3,16,11.3c7.2,0,13.4-4.6,15.8-11l5,3.1C117.9,34.2,109.8,39.6,100.7,39.6z"/>
</svg>
