<?xml version="1.0" encoding="utf-8"?>
<!-- Generator: Adobe Illustrator 22.1.0, SVG Export Plug-In . SVG Version: 6.00 Build 0)  -->
<svg version="1.1" id="Livello_1" xmlns="http://www.w3.org/2000/svg" xmlns:xlink="http://www.w3.org/1999/xlink" x="0px" y="0px"
	 viewBox="0 0 98.3 59.1" style="enable-background:new 0 0 98.3 59.1;" xml:space="preserve">
<style type="text/css">
	.st0{fill:#193156;}
</style>
<path class="st0" d="M53.9,17.8c0.8-1.4,1.3-3,1.3-4.8c0-5.3-4.1-9.5-9.1-9.5S37,7.7,37,13c0,5.3,4.1,9.5,9.1,9.5
	c1.6,0,3-0.4,4.3-1.2l44.7,37.8l3.2-3.8L53.9,17.8z M46.1,17.5c-2.3,0-4.1-2-4.1-4.5c0-2.5,1.8-4.5,4.1-4.5s4.1,2,4.1,4.5
	C50.2,15.5,48.3,17.5,46.1,17.5z"/>
<path class="st0" d="M16.5,11.6L26.5,0H0l3.8,26.3l9.4-10.9l45.4,38.4l3.2-3.8L16.5,11.6z M7.2,14.7L5.8,5h9.8L7.2,14.7z"/>
</svg>
