<?xml version="1.0" encoding="utf-8"?>
<!-- Generator: Adobe Illustrator 22.1.0, SVG Export Plug-In . SVG Version: 6.00 Build 0)  -->
<svg version="1.1" id="Livello_1" xmlns="http://www.w3.org/2000/svg" xmlns:xlink="http://www.w3.org/1999/xlink" x="0px" y="0px"
	 viewBox="0 0 144 122" style="enable-background:new 0 0 144 122;" xml:space="preserve">
<style type="text/css">
	.st0{fill:#193156;}
</style>
<polygon class="st0" points="114.4,0.9 114.6,5.9 135.5,5.2 72.1,68.6 8.6,5.2 29.6,5.9 29.8,0.9 -0.2,-0.2 0.9,29.9 5.9,29.7 
	5.1,8.7 68.5,72.2 22.4,118.3 26,121.8 72.1,75.7 118.2,121.8 121.7,118.3 75.6,72.2 139.1,8.7 138.3,29.7 143.3,29.9 144.4,-0.1 
	"/>
<g>
	<polygon class="st0" points="100,31.3 96.5,27.7 72.2,52 47.7,27.4 44.2,31 72.2,59 	"/>
	<polygon class="st0" points="72.2,88.5 51.9,68.1 48.3,71.7 72.2,95.5 95.8,71.9 92.3,68.4 	"/>
</g>
</svg>
