<?xml version="1.0" encoding="utf-8"?>
<!-- Generator: Adobe Illustrator 22.1.0, SVG Export Plug-In . SVG Version: 6.00 Build 0)  -->
<svg version="1.1" id="Livello_1" xmlns="http://www.w3.org/2000/svg" xmlns:xlink="http://www.w3.org/1999/xlink" x="0px" y="0px"
	 viewBox="0 0 98.2 38.8" style="enable-background:new 0 0 98.2 38.8;" xml:space="preserve">
<style type="text/css">
	.st0{fill:#193156;}
</style>
<g>
	<polygon class="st0" points="94.6,2.5 81.2,15.9 66.6,1.2 50.7,17.1 36.2,2.5 32.6,6 50.7,24.1 66.6,8.3 81.2,23 98.2,6 	"/>
	<path class="st0" d="M50.7,31.8L37.9,19l0,0L19,0L0,19l19,19l15.4-15.4l16.3,16.3l17.6-17.6l-3.5-3.5L50.7,31.8z M19,30.9L7.1,19
		L19,7.1L30.9,19L19,30.9z"/>
	<rect x="14.3" y="14.3" transform="matrix(0.7076 -0.7066 0.7066 0.7076 -7.8598 18.9538)" class="st0" width="9.3" height="9.3"/>
</g>
</svg>
