<?xml version="1.0" encoding="utf-8"?>
<!-- Generator: Adobe Illustrator 22.1.0, SVG Export Plug-In . SVG Version: 6.00 Build 0)  -->
<svg version="1.1" id="Livello_1" xmlns="http://www.w3.org/2000/svg" xmlns:xlink="http://www.w3.org/1999/xlink" x="0px" y="0px"
	 viewBox="0 0 294.6 81.8" style="enable-background:new 0 0 294.6 81.8;" xml:space="preserve">
<style type="text/css">
	.st0{fill:#193156;}
</style>
<g>
	<path class="st0" d="M128.5,40.9l18.8,25.9l18.8-25.9L147.3,15L128.5,40.9z M147.3,58.3l-12.6-17.4l12.6-17.4l12.6,17.4L147.3,58.3
		z"/>
	<path class="st0" d="M294.6,41.6l-18.2-23v19.7h-23.6l-15.5-19.2l-3.9,3.1l13,16h-28.1l-15.5-19.2l-3.9,3.1l13,16h-3.9l-15.5-19.2
		l-3.9,3.1l13,16h-26.2L147.3,0l-27.9,38.4H93.2l13-16l-3.9-3.1L86.7,38.4h-3.9l13-16l-3.9-3.1L76.4,38.4H48.3l13-16l-3.9-3.1
		L41.8,38.4H18.2V18.6L0,41.6l18.2,23V43.4h23.6l15.5,19.2l3.9-3.1l-13-16h28.1l15.5,19.2l3.9-3.1l-13-16h3.9l15.5,19.2l3.9-3.1
		l-13-16h26.2l27.9,38.4l27.9-38.4h26.2l-13,16l3.9,3.1l15.5-19.2h3.9l-13,16l3.9,3.1l15.5-19.2h28.1l-13,16l3.9,3.1l15.5-19.2h23.6
		v21.3L294.6,41.6z M13.2,50.3l-6.8-8.6l6.8-8.6V50.3z M147.3,73.3l-23.5-32.4l23.5-32.4l23.5,32.4L147.3,73.3z M281.4,33l6.8,8.6
		l-6.8,8.6V33z"/>
</g>
</svg>
