<?xml version="1.0" encoding="utf-8"?>
<!-- Generator: Adobe Illustrator 22.1.0, SVG Export Plug-In . SVG Version: 6.00 Build 0)  -->
<svg version="1.1" id="Livello_1" xmlns="http://www.w3.org/2000/svg" xmlns:xlink="http://www.w3.org/1999/xlink" x="0px" y="0px"
	 viewBox="0 0 138.3 36.3" style="enable-background:new 0 0 138.3 36.3;" xml:space="preserve">
<style type="text/css">
	.st0{fill:#F8F8F8;}
</style>
<g>
	<path class="st0" d="M2,28.4V5h8.7c1.9,0,3.6,0.3,5.1,0.9s2.7,1.5,3.6,2.5s1.7,2.3,2.2,3.7s0.7,2.9,0.7,4.5c0,1.8-0.3,3.4-0.8,4.8
		c-0.6,1.4-1.3,2.7-2.4,3.7c-1,1-2.3,1.8-3.7,2.4s-3,0.8-4.8,0.8H2V28.4z M16.9,16.7c0-1-0.1-2-0.4-2.8s-0.7-1.6-1.2-2.2
		c-0.5-0.6-1.2-1.1-1.9-1.4c-0.8-0.3-1.6-0.5-2.6-0.5H7.4v13.9h3.3c1,0,1.9-0.2,2.6-0.5s1.4-0.8,1.9-1.5c0.5-0.6,0.9-1.4,1.2-2.2
		C16.8,18.6,16.9,17.7,16.9,16.7z"/>
	<path class="st0" d="M42,23.7v4.8H25.6V5h16.2v4.8H31v4.6h9.2v4.4H31v5L42,23.7L42,23.7z"/>
	<path class="st0" d="M59.5,11.8c-0.1-0.1-0.3-0.3-0.7-0.5s-0.9-0.5-1.5-0.8s-1.2-0.5-1.9-0.7S54,9.5,53.3,9.5
		c-1.9,0-2.9,0.6-2.9,1.9c0,0.4,0.1,0.7,0.3,1s0.5,0.5,0.9,0.7s0.9,0.4,1.5,0.6c0.6,0.2,1.3,0.4,2.1,0.6c1.1,0.3,2.1,0.6,3,1
		s1.7,0.8,2.3,1.4c0.6,0.5,1.1,1.2,1.5,2c0.3,0.8,0.5,1.7,0.5,2.8c0,1.3-0.2,2.4-0.7,3.3s-1.1,1.6-2,2.2c-0.8,0.6-1.7,1-2.8,1.2
		c-1.1,0.3-2.1,0.4-3.3,0.4c-0.9,0-1.7-0.1-2.6-0.2c-0.9-0.1-1.8-0.3-2.6-0.6c-0.9-0.3-1.7-0.6-2.5-0.9c-0.8-0.4-1.5-0.8-2.2-1.2
		l2.4-4.7c0.1,0.1,0.4,0.3,0.9,0.6c0.5,0.3,1.1,0.6,1.8,0.9s1.5,0.6,2.4,0.8c0.9,0.2,1.8,0.4,2.7,0.4c1.9,0,2.9-0.6,2.9-1.7
		c0-0.4-0.1-0.8-0.4-1.1c-0.3-0.3-0.7-0.5-1.2-0.8c-0.5-0.2-1.1-0.4-1.8-0.6s-1.4-0.4-2.3-0.7c-1.1-0.3-2-0.7-2.8-1.1
		s-1.4-0.8-2-1.3c-0.5-0.5-0.9-1.1-1.2-1.7c-0.3-0.7-0.4-1.4-0.4-2.3c0-1.2,0.2-2.3,0.7-3.3c0.5-0.9,1.1-1.7,1.9-2.4
		c0.8-0.6,1.7-1.1,2.8-1.5c1-0.3,2.1-0.5,3.3-0.5c0.8,0,1.6,0.1,2.4,0.2c0.8,0.2,1.6,0.4,2.3,0.6s1.4,0.5,2,0.8s1.2,0.6,1.7,0.9
		L59.5,11.8z"/>
	<path class="st0" d="M65.7,28.4V5h5.4v23.4H65.7z"/>
	<path class="st0" d="M74.8,17c0-1.1,0.1-2.2,0.3-3.3c0.2-1.1,0.5-2.1,1-3.2c0.4-1,0.9-2.1,1.4-3.1s1.1-2.1,1.7-3.1l0.9,0.5
		c-0.5,0.7-1,1.6-1.5,2.6s-1,2-1.4,3.1s-0.8,2.2-1,3.3c-0.3,1.1-0.4,2.2-0.4,3.2c0,1.7,0.4,3.6,1.1,5.6c0.7,2.1,1.8,4.1,3.1,6.1
		l-0.9,0.5c-1.4-2.1-2.5-4.2-3.3-6.2C75.1,21.1,74.8,19,74.8,17z"/>
	<path class="st0" d="M101,24.6c-2.4,2.7-5.1,4-8.2,4c-1.6,0-3.1-0.3-4.4-1s-2.5-1.6-3.5-2.7s-1.7-2.4-2.3-3.8
		c-0.5-1.4-0.8-2.9-0.8-4.3c0-1.5,0.3-3,0.8-4.5c0.5-1.4,1.3-2.7,2.2-3.8s2.1-2,3.4-2.6c1.3-0.7,2.7-1,4.3-1c1.2,0,2.3,0.1,3.2,0.4
		s1.8,0.6,2.5,1.1s1.4,1,1.9,1.6s1,1.3,1.4,2.1l-1,0.5c-0.9-1.6-2-2.8-3.3-3.5C95.8,6.4,94.3,6,92.5,6c-1.5,0-2.8,0.3-4,0.9
		s-2.2,1.4-3,2.5c-0.8,1-1.5,2.2-1.9,3.4c-0.4,1.3-0.7,2.6-0.7,3.9c0,1.4,0.3,2.8,0.8,4.1c0.5,1.3,1.2,2.4,2.1,3.4s1.9,1.8,3.2,2.4
		c1.2,0.6,2.5,0.9,3.9,0.9c1.5,0,2.9-0.3,4.2-1c1.3-0.7,2.6-1.8,3.9-3.2v-5.1h-5.4v-1h6.5v11.3H101V24.6z"/>
	<path class="st0" d="M108.3,7.2v21.3h-1.2V5h0.9l17.2,21.6V5h1.2v23.4h-1.1L108.3,7.2z"/>
	<path class="st0" d="M135.4,17c0,2-0.4,4.1-1.2,6.1c-0.8,2.1-1.9,4.1-3.3,6.2l-0.9-0.5c1.3-2,2.4-4,3.1-6.1
		c0.7-2.1,1.1-3.9,1.1-5.6c0-1-0.1-2.1-0.4-3.2c-0.3-1.1-0.6-2.2-1-3.3s-0.9-2.1-1.4-3.1s-1-1.9-1.5-2.6l0.9-0.5
		c0.6,1,1.2,2.1,1.7,3.1s1,2.1,1.4,3.1s0.7,2.1,1,3.2C135.3,14.8,135.4,15.9,135.4,17z"/>
</g>
</svg>
