<?xml version="1.0" encoding="utf-8"?>
<!-- Generator: Adobe Illustrator 22.1.0, SVG Export Plug-In . SVG Version: 6.00 Build 0)  -->
<svg version="1.1" id="Livello_1" xmlns="http://www.w3.org/2000/svg" xmlns:xlink="http://www.w3.org/1999/xlink" x="0px" y="0px"
	 viewBox="0 0 74 85.4" style="enable-background:new 0 0 74 85.4;" xml:space="preserve">
<style type="text/css">
	.st0{fill:#193156;}
</style>
<g>
	<g>
		<polygon class="st0" points="37.2,67.7 0,30.5 3.5,26.9 37.2,60.6 70.5,27.4 74,30.9 		"/>
	</g>
	<g>
		<polygon class="st0" points="37.2,85.4 0,48.2 3.5,44.7 37.2,78.4 70.5,45.1 74,48.6 		"/>
	</g>
	<g>
		<path class="st0" d="M37,22.3c-6.2,0-11.2-5-11.2-11.2S30.9,0,37,0s11.2,5,11.2,11.2S43.2,22.3,37,22.3z M37,5
			c-3.4,0-6.2,2.8-6.2,6.2s2.8,6.2,6.2,6.2s6.2-2.8,6.2-6.2S40.4,5,37,5z"/>
	</g>
</g>
</svg>
