<?xml version="1.0" encoding="utf-8"?>
<!-- Generator: Adobe Illustrator 22.1.0, SVG Export Plug-In . SVG Version: 6.00 Build 0)  -->
<svg version="1.1" id="Livello_1" xmlns="http://www.w3.org/2000/svg" xmlns:xlink="http://www.w3.org/1999/xlink" x="0px" y="0px"
	 viewBox="0 0 98.3 59.1" style="enable-background:new 0 0 98.3 59.1;" xml:space="preserve">
<style type="text/css">
	.st0{fill:#193156;}
</style>
<path class="st0" d="M0,55.3l3.2,3.8l44.7-37.8c1.3,0.7,2.8,1.2,4.3,1.2c5,0,9.1-4.3,9.1-9.5c0-5.3-4.1-9.5-9.1-9.5
	s-9.1,4.3-9.1,9.5c0,1.8,0.5,3.4,1.3,4.8L0,55.3z M48.1,13c0-2.5,1.8-4.5,4.1-4.5s4.1,2,4.1,4.5c0,2.5-1.8,4.5-4.1,4.5
	S48.1,15.5,48.1,13z"/>
<path class="st0" d="M36.4,49.9l3.2,3.8L85,15.3l9.4,10.9L98.3,0L71.8,0l10,11.6L36.4,49.9z M82.7,5h9.8l-1.4,9.7L82.7,5z"/>
</svg>
