<?xml version="1.0" encoding="utf-8"?>
<!-- Generator: Adobe Illustrator 22.1.0, SVG Export Plug-In . SVG Version: 6.00 Build 0)  -->
<svg version="1.1" id="Livello_1" xmlns="http://www.w3.org/2000/svg" xmlns:xlink="http://www.w3.org/1999/xlink" x="0px" y="0px"
	 viewBox="0 0 98.2 38.8" style="enable-background:new 0 0 98.2 38.8;" xml:space="preserve">
<style type="text/css">
	.st0{fill:#193156;}
</style>
<g>
	<polygon class="st0" points="3.5,2.5 16.9,15.9 31.6,1.2 47.4,17.1 62,2.5 65.5,6 47.4,24.1 31.6,8.3 16.9,23 0,6 	"/>
	<path class="st0" d="M33.4,17.7l-3.5,3.5l17.6,17.6l16.3-16.3l15.4,15.4l19-19l-19-19l-19,19l0,0L47.4,31.8L33.4,17.7z M67.3,19
		L79.2,7.1L91.1,19L79.2,30.9L67.3,19z"/>
	<rect x="74.6" y="14.3" transform="matrix(0.7066 -0.7076 0.7076 0.7066 9.8136 61.6164)" class="st0" width="9.3" height="9.3"/>
</g>
</svg>
