<?xml version="1.0" encoding="utf-8"?>
<!-- Generator: Adobe Illustrator 22.1.0, SVG Export Plug-In . SVG Version: 6.00 Build 0)  -->
<svg version="1.1" id="Capa_1" xmlns="http://www.w3.org/2000/svg" xmlns:xlink="http://www.w3.org/1999/xlink" x="0px" y="0px"
	 viewBox="0 0 512 512" style="enable-background:new 0 0 512 512;" xml:space="preserve">
<style type="text/css">
	.st0{fill:#F7F7F2;}
</style>
<g>
	<path id="Dribbble" class="st0" d="M256,0C114.6,0,0,114.6,0,256c0,141.4,114.6,256,256,256s256-114.6,256-256
		C512,114.6,397.4,0,256,0z M412.8,132.7c25,31.7,40.6,71,42.6,113.9c-28.9-6.1-56.2-9.1-81.7-9.1v0h-0.2c-20.5,0-39.7,1.9-57.9,5.1
		c-4.4-10.8-8.9-21.2-13.4-31.1C342.7,193.8,381.5,168.5,412.8,132.7z M256,56.3c47.1,0,90.3,16.5,124.5,43.9
		c-26.2,31.3-60.7,54-98.1,70.1c-26.2-50.7-51.6-87-68.9-109.2C227.3,58,241.4,56.3,256,56.3z M167.8,77.1
		c13.9,16.4,41.6,52.4,71.3,108.6c-60.3,17.9-121,22.2-157.7,22.2c-1,0-2.1,0-3.1,0h0c-6.2,0-11.5-0.1-15.9-0.2
		C76.6,150.3,115.8,102.8,167.8,77.1z M56.3,256c0-0.9,0-1.9,0.1-2.9c5.7,0.2,13,0.4,21.8,0.4h0c40.1-0.3,110.2-3.6,181.3-26
		c3.9,8.5,7.7,17.3,11.5,26.4c-47.4,15.9-84.8,41.1-112.4,66.3c-26.6,24.2-44.6,48.2-55.1,64.3C74.1,349.7,56.3,305,56.3,256z
		 M256,455.7c-44.4,0-85.4-14.7-118.6-39.4c7.1-11.6,22.2-34,46.3-57c24.8-23.8,59.1-48.3,103.8-62.8c15.2,42.6,29,91.3,39.4,146.2
		C304.8,451.1,281,455.7,256,455.7z M369,420.3c-10.1-49.6-22.9-94.3-36.9-134.2c13-1.9,26.6-2.9,41-2.9h0.5h0h0
		c23.8,0,50,3,78.4,9.4C442.3,345.4,411.7,390.9,369,420.3z"/>
</g>
</svg>
