<?xml version="1.0" encoding="utf-8"?>
<!-- Generator: Adobe Illustrator 22.1.0, SVG Export Plug-In . SVG Version: 6.00 Build 0)  -->
<svg version="1.1" id="Capa_1" xmlns="http://www.w3.org/2000/svg" xmlns:xlink="http://www.w3.org/1999/xlink" x="0px" y="0px"
	 viewBox="0 0 512 512" style="enable-background:new 0 0 512 512;" xml:space="preserve">
<style type="text/css">
	.st0{fill:#193156;}
</style>
<path class="st0" d="M508.6,53.6C474,19,428,0,379.1,0c-48.9,0-94.9,19-129.5,53.6c-3.3,3.3-4.3,8.3-2.5,12.6
	c1.8,4.3,6,7.2,10.7,7.2c8.5,0,14.9,2.7,19.5,8.2c8.4,10,10.8,29.3,6.6,53c-3.9,22.3-11.8,43.3-23.5,62.7l-28.9-20.7c0,0,0,0,0,0
	l-28.6-20.5c-5.2-3.7-12.4-2.5-16.2,2.7c-3.7,5.2-2.5,12.4,2.7,16.2l17.5,12.6l-18.1,18.1l-12.6-17.5c-3.7-5.2-11-6.4-16.2-2.7
	c-5.2,3.7-6.4,11-2.7,16.2l20.5,28.6l21,29.3c-19.7,12.2-41.3,20.4-64.2,24.4c-7.7,1.4-14.9,2-21.6,2c-13.3,0-23.8-2.8-30.6-8
	c-6.1-4.7-9.1-11.3-9.1-20.2c0-4.7-2.8-8.9-7.2-10.7c-4.3-1.8-9.3-0.8-12.6,2.5c-71.4,71.4-71.4,187.6,0,259
	c2.2,2.2,5.2,3.4,8.2,3.4c1.2,0,2.3-0.2,3.4-0.5c4.1-1.3,7.2-4.7,8-9c3.2-17.4,11.6-33.3,24.1-45.9c16.5-16.5,38.4-25.6,61.8-25.6
	c13.1,0,26.2,3,38,8.7c3.4,1.6,7.3,1.5,10.6-0.3c3.3-1.8,5.5-5.1,5.9-8.8c2.4-21.4,11.7-40.7,26.9-55.9
	c17.8-17.8,41.4-27.6,66.5-27.6c10.3,0,20.5,1.7,30.2,4.9c4.2,1.4,8.8,0.3,11.9-2.8c3.1-3.1,4.2-7.7,2.8-11.9
	c-11.5-34.2-2.9-71.3,22.6-96.7c15.2-15.2,34.6-24.5,55.9-26.9c3.7-0.4,7-2.6,8.8-5.9c1.8-3.3,1.9-7.2,0.3-10.6
	c-16.1-33.4-9.3-73.5,16.9-99.7c12.6-12.6,28.5-20.9,45.9-24.1c4.2-0.8,7.7-3.8,9-8C512.7,61.2,511.6,56.7,508.6,53.6z M440.2,81
	c-29.6,29.6-39.7,73.2-27,112.2c-20.8,5-39.6,15.6-55,31c-27,27-38.8,64.3-33,101.1c-6-0.9-12-1.4-18.1-1.4
	c-31.3,0-60.8,12.2-82.9,34.3c-15.4,15.4-26,34.2-31,55c-11-3.5-22.5-5.4-34.1-5.4c-29.5,0-57.3,11.5-78.1,32.4
	c-10.6,10.6-18.9,23.1-24.4,36.8C12.3,419.9,12.1,339.4,56,282c3,5.6,7.2,10.4,12.4,14.4c11,8.5,26.1,12.7,44.7,12.7
	c8,0,16.6-0.8,25.6-2.4c30.2-5.3,58.2-17,83.3-34.8c2.5-1.8,4.2-4.5,4.7-7.5c0.5-3-0.2-6.2-2-8.7l-22.2-31.1l23.5-23.5l30.8,22
	c2.5,1.8,5.7,2.5,8.7,2c3.1-0.5,5.8-2.3,7.5-4.8c17.1-24.7,28.4-52.2,33.7-81.7c5.5-31.4,1.5-56.3-11.7-72
	c-3.8-4.5-8.2-8.1-13.1-10.8c27.8-21.3,61.6-32.8,97.1-32.8c35.9,0,70,11.8,97.9,33.4C463.3,62.1,450.8,70.4,440.2,81z"/>
</svg>
