<?xml version="1.0" encoding="utf-8"?>
<!-- Generator: Adobe Illustrator 22.1.0, SVG Export Plug-In . SVG Version: 6.00 Build 0)  -->
<svg version="1.1" id="Livello_1" xmlns="http://www.w3.org/2000/svg" xmlns:xlink="http://www.w3.org/1999/xlink" x="0px" y="0px"
	 viewBox="0 0 1000 1000" style="enable-background:new 0 0 1000 1000;" xml:space="preserve">
<style type="text/css">
	.st0{fill:#193156;}
</style>
<g>
	<g>
		<path class="st0" d="M990.1,972.5c0-8.5-6.8-15.3-15.3-15.3H130l204.9-61c2.5-0.8,4.7-2.1,6.5-3.9L863,367.2
			c0.7-0.7,1.1-1.7,1.6-2.5l111.6-111.6c9-8.9,13.9-20.9,13.9-33.6s-4.9-24.6-13.9-33.6L816.4,26.2c-18.5-18.5-48.7-18.5-67.2,0
			L635.1,140.3c-0.8,0.7-1.2,1.6-1.7,2.5L110.9,665.2c-1.7,1.7-3,3.8-3.7,6.1L10.8,967.8c-0.2,0.4,0,0.9-0.1,1.3
			c-0.3,1.1-0.7,2.2-0.7,3.4c0,0.8,0.4,1.4,0.5,2.2c0.1,0.7,0.2,1.4,0.4,2.1c0.7,2.3,1.7,4.3,3.3,6c0.1,0.1,0.1,0.3,0.2,0.4
			c0,0.1,0.1,0.1,0.1,0.1c1.4,1.4,3,2.5,4.9,3.3s3.9,1.2,5.9,1.2h949.5C983.3,987.8,990.1,980.9,990.1,972.5L990.1,972.5z
			 M830.6,356.5L334.8,855.6l-17.6-61.1l478.7-472.6L830.6,356.5z M293.8,774.6h-70.1v-71.2L700,225.9l74.4,74.4L293.8,774.6
			L293.8,774.6z M204.7,679.4l-52.7-12l494.7-494.7l31.7,31.7L204.7,679.4L204.7,679.4z M307.7,872.3l-259,77.2l83.1-255.4
			l61.3,13.9v81.9c0,8.5,6.9,15.3,15.3,15.3h80.1L307.7,872.3z M954.6,231.6L851.7,334.5L667.8,150.7L770.7,47.8
			c6.7-6.7,17.5-6.6,24.1,0l159.8,159.7c3.2,3.2,5,7.5,5,12C959.6,224.1,957.8,228.4,954.6,231.6z"/>
	</g>
</g>
</svg>
