<?xml version="1.0" encoding="utf-8"?>
<!-- Generator: Adobe Illustrator 22.1.0, SVG Export Plug-In . SVG Version: 6.00 Build 0)  -->
<svg version="1.1" id="Layer_1" xmlns="http://www.w3.org/2000/svg" xmlns:xlink="http://www.w3.org/1999/xlink" x="0px" y="0px"
	 viewBox="0 0 32 32" style="enable-background:new 0 0 32 32;" xml:space="preserve">
<style type="text/css">
	.st0{fill:#193156;}
</style>
<title></title>
<path class="st0" d="M31,16.6c0-3.6-1.4-7.1-3.8-9.8L28,6l-0.5-0.5C24.4,2.7,20.3,1,16,1S7.6,2.7,4.5,5.5L4,6l0.8,0.8
	C2.4,9.4,1,13,1,16.6c-0.1,3.3,1.2,6.4,3.5,8.9v3.2h2.3c0,1.3,1,2.3,2.3,2.3s2.3-1,2.3-2.3v-9.2c0-1.3-1-2.3-2.3-2.3s-2.3,1-2.3,2.3
	H4.5v4.3c-1.6-2.1-2.4-4.5-2.3-7.1c0-3.3,1.3-6.4,3.5-9l0.8,0.8l0.3-0.3c2.5-2.3,5.8-3.6,9.2-3.6c3.5-0.1,6.7,1.2,9.2,3.6l0.5,0.5
	l0.7-0.9c2.2,2.5,3.4,5.6,3.4,9c0.1,2.5-0.7,5.1-2.3,7.1v-4.3h-2.3c0-1.3-1-2.3-2.3-2.3c-1.3,0-2.3,1-2.3,2.3v9.2
	c0,1.3,1,2.3,2.3,2.3c1.3,0,2.3-1,2.3-2.3h2.3v-3.2C29.8,23,31.1,19.9,31,16.6z M9.1,18.3c0.7,0,1.1,0.5,1.1,1.2v9.2
	c0,0.7-0.5,1.1-1.1,1.1c-0.7,0-1.2-0.5-1.2-1.1v-9.2C7.9,18.8,8.4,18.3,9.1,18.3z M5.7,20.6h1.2v6.9H5.7V20.6z M25.5,6.8
	c-2.6-2.3-6.1-3.6-9.5-3.5c-3.4-0.1-6.9,1.2-9.5,3.5L5.7,6C8.5,3.5,12.2,2.2,16,2.2S23.5,3.5,26.4,6L25.5,6.8z M22.9,29.8
	c-0.7,0-1.1-0.5-1.1-1.1v-9.2c0-0.7,0.5-1.2,1.1-1.2s1.1,0.5,1.1,1.2v9.2C24,29.3,23.6,29.8,22.9,29.8z M26.4,27.5h-1.1v-6.9h1.1
	V27.5z"/>
</svg>
