<?xml version="1.0" encoding="utf-8"?>
<!-- Generator: Adobe Illustrator 22.1.0, SVG Export Plug-In . SVG Version: 6.00 Build 0)  -->
<svg version="1.1" id="Capa_1" xmlns="http://www.w3.org/2000/svg" xmlns:xlink="http://www.w3.org/1999/xlink" x="0px" y="0px"
	 viewBox="0 0 466.5 466.5" style="enable-background:new 0 0 466.5 466.5;" xml:space="preserve">
<style type="text/css">
	.st0{fill:#193156;}
</style>
<g>
	<path class="st0" d="M219.6,381.7c2.4-21.4,17-39.9,37.5-47c10.3-3.5,19.2-9.2,26.7-16.7c25.5-25.5,28-67,6.9-102.6L402.7,99.2
		c6.2,2.1,13.2,0.7,18-4.1l33.8-33.8c4.2-4.2,5.6-10.5,3.5-16.1c-6.3-17.2-19.7-30.6-36.7-36.7c-5.6-2.1-11.8-0.6-16.1,3.5
		l-33.8,33.8c-4.8,4.8-6.3,12-4.1,18l-116,112.1c-35.7-21.2-77.2-18.5-102.6,6.9c-7.5,7.5-13.2,16.6-16.7,26.7
		c-7.1,20.4-25.5,35.1-47,37.5c-20.4,2.3-38.6,10.8-52.3,24.5C-5.3,309.3,0.4,376.6,45.1,421.4s112.1,50.4,149.9,12.6
		C208.8,420.3,217.4,402.1,219.6,381.7z M218.6,248c11.8,11.8,11.8,30.9,0,42.8c-11.8,11.8-30.9,11.8-42.8,0
		c-11.8-11.8-11.8-30.9,0-42.8C187.6,236.2,206.9,236.2,218.6,248z M228.9,237.7c-3.6-3.6-7.6-6.4-12-8.6L376.3,75.3l14.9,14.9
		L237.4,249.7C235.3,245.4,232.5,241.3,228.9,237.7z M415.6,22.2c0.2-0.2,0.5-0.2,0.8-0.2c6.5,2.4,12.3,6.2,17.2,10.9
		c4.8,4.8,8.6,10.6,10.9,17.2c0.1,0.2,0,0.6-0.2,0.8l-33.8,33.8c-1.2,1.2-3,1.2-4.2,0l-24.5-24.5c-1.2-1.2-1.2-3,0-4.2L415.6,22.2
		L415.6,22.2z M55.4,411.2C16.2,372,10.6,314,42.8,281.9c11.5-11.5,26.6-18.5,43.8-20.4c27-3,50.2-21.5,59.1-47.1
		c2.8-8.1,7.3-15.2,13.3-21.3c19.9-19.9,52.5-22.2,81.5-6.6l-39.8,38.3c-12.6-1-25.4,3.4-35.1,12.9c-17.4,17.4-17.4,45.8,0,63.2
		s45.8,17.4,63.2,0c9.5-9.5,13.9-22.5,12.9-35.1l38.3-39.8c15.6,29.1,13.3,61.6-6.6,81.5c-5.9,5.9-13.1,10.4-21.3,13.3
		c-25.6,8.9-44.1,32.2-47.1,59.1c-1.9,17.2-8.9,32.3-20.4,43.8C152.6,455.9,94.6,450.4,55.4,411.2z"/>
	<path class="st0" d="M131.3,384.1l-49-49c-2.8-2.8-7.4-2.8-10.3,0l-9.1,9.1c-2.8,2.8-2.8,7.4,0,10.3c2.8,2.8,7.4,2.8,10.3,0l4-4
		l38.7,38.7l-4,4c-2.8,2.8-2.8,7.4,0,10.3c2.8,2.8,7.4,2.8,10.3,0l9.1-9.1C134.2,391.5,134.2,386.9,131.3,384.1z"/>
</g>
</svg>
